<svg xmlns="http://www.w3.org/2000/svg" viewBox="0 0 629 211"><polygon points="4.37 208 83.06 3 250.63 3 171.94 208 4.37 208"/><path d="M252.27,181,175.88,380H14.73L91.12,181H252.27m8.73-6H87L6,386H180l81-211Z" transform="translate(-6 -175)"/><polygon points="191.37 208 270.06 3 437.63 3 358.94 208 191.37 208"/><path d="M439.27,181,362.88,380H201.73l76.39-199H439.27m8.73-6H274L193,386H367l81-211Z" transform="translate(-6 -175)"/><polygon points="378.37 208 457.06 3 624.63 3 545.94 208 378.37 208"/><path d="M626.27,181,549.88,380H388.73l76.39-199H626.27m8.73-6H461L380,386H554l81-211Z" transform="translate(-6 -175)"/></svg>